<?xml version="1.0" encoding="UTF-8"?>
<svg width="449px" height="928px" viewBox="0 0 449 928" version="1.1" xmlns="http://www.w3.org/2000/svg" xmlns:xlink="http://www.w3.org/1999/xlink">
    <!-- Generator: Sketch 40.1 (33804) - http://www.bohemiancoding.com/sketch -->
    <title>Group 2</title>
    <desc>Created with Sketch.</desc>
    <defs></defs>
    <g id="Welcome" stroke="none" stroke-width="1" fill="none" fill-rule="evenodd">
        <g id="Artboard" transform="translate(-470.000000, -134.000000)" fill="#FFFFFF">
            <g id="Group-2" transform="translate(472.000000, 136.000000)">
                <g id="Phone" stroke-opacity="0.823822464" stroke="#FFFFFF" stroke-width="3">
                    <path d="M0,64.9968685 C0,29.1000892 29.1010819,0 65.0045234,0 L379.995477,0 C415.896484,0 445,29.0991708 445,64.9968685 L445,859.003132 C445,894.899911 415.898918,924 379.995477,924 L65.0045234,924 C29.1035165,924 0,894.900829 0,859.003132 L0,64.9968685 Z M222.5,900 C241.553824,900 257,884.553824 257,865.5 C257,846.446176 241.553824,831 222.5,831 C203.446176,831 188,846.446176 188,865.5 C188,884.553824 203.446176,900 222.5,900 Z M191.5,68 L255.5,68 L259.5,68 L259.5,60 L255.5,60 L191.5,60 L187.5,60 L187.5,68 L191.5,68 Z M28,116 L418,116 L418,813 L28,813 L28,116 Z M152,71 C155.865993,71 159,67.8659932 159,64 C159,60.1340068 155.865993,57 152,57 C148.134007,57 145,60.1340068 145,64 C145,67.8659932 148.134007,71 152,71 Z" id="Combined-Shape"></path>
                </g>
                <g id="Group" transform="translate(52.000000, 157.000000)">
                    <circle id="Oval-9" cx="302" cy="154" r="44"></circle>
                    <circle id="Oval-8" cx="302" cy="555" r="36"></circle>
                    <circle id="Oval-8-Copy" cx="36" cy="519" r="36"></circle>
                    <circle id="Oval-7" cx="44" cy="44" r="44"></circle>
                    <path d="M163.714359,279.999914 C163.714359,291.330285 154.473277,300.571367 143.142906,300.571367 C131.812536,300.571367 122.571453,291.330285 122.571453,279.999914 C122.571453,268.669544 131.812536,259.428461 143.142906,259.428461 C154.473277,259.428461 163.714359,268.669544 163.714359,279.999914 L163.714359,279.999914 Z M143,412 C202.094468,412 250,364.094468 250,305 C250,245.905532 202.094468,198 143,198 C83.9055318,198 36,245.905532 36,305 C36,364.094468 83.9055318,412 143,412 Z M184.285812,279.999914 C184.285812,257.258816 165.884005,238.857008 143.142906,238.857008 C120.401808,238.857008 102,257.258816 102,279.999914 C102,284.901706 102.562501,289.964212 104.651789,294.38386 L133.982181,356.580363 C135.589326,360.116081 139.285759,362.285727 143.142906,362.285727 C147.000054,362.285727 150.696487,360.116081 152.383989,356.580363 L181.634024,294.38386 C183.723312,289.964212 184.285812,284.901706 184.285812,279.999914 Z" id="Combined-Shape"></path>
                </g>
            </g>
        </g>
    </g>
</svg>